<?xml version="1.0"?>
<svg xmlns:rdf="http://www.w3.org/1999/02/22-rdf-syntax-ns#" xmlns="http://www.w3.org/2000/svg" xmlns:cc="http://web.resource.org/cc/" xmlns:xlink="http://www.w3.org/1999/xlink" xmlns:dc="http://purl.org/dc/elements/1.1/" xmlns:svg="http://www.w3.org/2000/svg" space="preserve" viewBox="0 0 344.608 370.944" enable-background="new 0 0 344.608 370.944" overflow="visible">
  <g id="Layer_1">
    <g clip-rule="evenodd" fill-rule="evenodd">
      <path stroke="#C79687" stroke-width=".036" stroke-miterlimit="10" d="m238.91 66.838c5.796-7.344 11.952-14.832 18.468-22.608 6.517-7.956 14.292-17.388 20.412-24.12 6.048-6.804 10.152-12.456 15.805-15.84 5.544-3.456 11.088-4.788 17.46-4.14 6.3 0.612 14.58 2.088 20.268 7.92 5.508 5.868 13.104 17.604 13.212 26.604 0.036 8.712 1.692 9.288-12.815 25.884-14.868 16.668-44.713 44.64-74.664 73.08-30.133 28.332-78.805 73.152-103.82 95.724-24.876 22.355-30.456 24.695-44.784 38.123-14.4 13.32-26.964 26.785-40.896 41.51-14.112 14.65-27.972 29.592-42.552 45.646 1.116 3.025 1.008 5.797-0.18 8.461-1.26 2.627-4.14 6.119-7.236 7.271-3.24 0.973-8.82 0.9-11.736-1.043-2.988-2.125-5.436-7.273-5.832-10.98-0.396-3.816 0.684-8.568 3.24-10.943 2.484-2.342 6.192-3.313 11.412-2.916 8.388-9.576 18.252-20.846 30.564-34.488 12.204-13.717 26.28-27.396 42.228-46.873 15.948-19.729 37.296-50.328 52.092-70.02 14.472-19.692 21.6-30.6 34.704-47.304 13.248-16.92 32.437-39.708 43.524-52.956 10.8-13.216 17.75-21.784 21.13-25.996z" fill="#C79687"/>
      <path d="m300.22 25.798c1.619 3.276 9.468 7.596 10.907 6.984 1.188-0.756-1.584-7.704-3.168-10.98-1.691-3.384-5.04-9.468-6.3-8.82-1.37 0.684-3.09 9.396-1.44 12.816z" fill="#E1CDCC"/>
      <path d="m323.69 14.746c2.412 3.096 9.036 10.224 10.836 10.692 1.692 0.324 1.979-4.752-0.396-7.992-2.663-3.312-12.42-10.692-14.292-11.16-1.76-0.396 1.37 5.148 3.85 8.46z" fill="#E1CDCC"/>
      <path d="m203.99 126.35c11.412-12.42 21.96-26.136 35.964-42.264 13.896-16.308 40.104-43.776 47.088-54.216 6.624-10.404-1.08-11.232-6.3-7.488-5.22 3.816-9.828 11.628-24.66 29.952-14.976 18.324-50.256 60.948-64.332 78.84-14.111 17.676-21.816 27.252-19.8 26.64 2.09-0.94 20.6-19.15 32.04-31.46z" fill="#E1CDCC"/>
      <path d="m22.482 356.28c0.72 0.828 0.54 1.836-0.54 3.168-1.188 1.225-3.852 3.852-5.904 4.537-2.16 0.611-4.86 0.576-6.552-0.648-1.728-1.439-3.276-4.859-3.528-7.201-0.252-2.447 0.936-4.967 2.016-6.588 1.008-1.619 2.268-2.627 3.924-3.023-2.988-0.432-5.256 0.037-6.948 1.801-1.872 1.691-3.384 5.039-3.276 8.244 0.18 3.096 1.908 8.063 4.356 10.332 2.448 2.195 6.66 2.916 9.72 2.555 2.736-0.646 5.832-3.348 7.344-5.58 1.476-2.23 1.44-6.191 1.44-7.451-0.108-1.31-0.792-1.31-2.052-0.15z" fill="#A37157"/>
      <path d="m300.22 49.738c-4.104 2.412-14.04 13.608-22.572 20.952-8.532 7.272-26.136 23.292-27.973 22.356-1.871-1.224 9.108-19.332 16.849-28.908 7.668-9.612 22.572-23.652 28.872-27.972 6.156-4.284 7.452 2.664 8.315 2.232 0.757-0.504-0.54-5.436-3.348-5.22-2.808 0.108-6.588 0-13.572 6.192-7.308 6.192-20.952 19.512-28.872 30.672-7.92 11.088-19.764 32.976-17.892 35.244 2.052 1.944 18.828-14.4 29.231-22.644 10.152-8.316 26.353-20.844 31.645-26.352 5.1-5.656 3.12-8.86-0.7-6.556z" fill="#B57D61"/>
      <path d="m268.22 93.01c-5.004 3.384-9.936 6.984-18.54 14.544-8.783 7.596-30.42 31.716-33.264 30.42-2.771-1.62 9.864-27.396 16.524-39.276s21.527-28.404 22.932-31.5c1.044-3.096-8.928 4.5-15.624 12.78-6.804 8.136-19.08 25.056-24.048 36.18-5.004 11.052-8.28 27.936-5.112 29.952 3.313 1.764 13.068-8.604 24.553-18.468 11.411-9.936 37.907-34.668 43.523-40.464 5.37-5.856-6.01 2.424-10.94 5.844z" fill="#B57D61"/>
      <path d="m204.21 161.34c-0.071 1.332-15.479 18.18-20.376 20.412-4.896 2.196-11.844 2.34-8.352-7.632 3.636-10.404 26.928-49.608 29.483-53.064 2.16-3.132-11.556 24.588-15.3 33.588-3.744 8.856-8.964 17.892-6.516 19.188 2.46 1.03 20.82-13.87 21.07-12.5z" fill="#B57D61"/>
      <path d="m153.95 187.73c-1.224-0.072-9.18 14.832-8.46 18.324 0.648 3.383 5.004 5.795 12.384 2.23 7.344-3.816 17.171-11.627 31.284-23.868 14.076-12.312 46.296-42.948 52.488-48.852 5.796-5.796-9.145 7.236-16.92 14.112-7.956 6.84-19.872 18.108-29.628 26.46-9.828 8.316-21.061 17.136-28.26 22.429-7.128 5.076-12.096 9.395-14.22 7.703-2.15-1.97 2.46-18.43 1.34-18.53z" fill="#B57D61"/>
      <path d="m146.18 221.75c-3.816 2.988-6.984 4.715-10.044 5.58-3.132 0.791-8.208 2.412-7.992-0.973 0.252-3.6 3.528-10.08 9.684-20.016-5.652 8.893-7.776 14.473-6.372 17.137 1.36 2.52 6.22 1.94 14.72-1.73z" fill="#B57D61"/>
      <path d="m139.34 230.57c1.62-0.541-8.352 7.055-13.248 10.152-4.968 3.023-14.94 9.252-16.164 7.848-1.332-1.656 6.444-13.357 8.748-17.064 2.268-3.709 5.112-7.02 4.788-4.932-0.504 2.051-9.972 16.631-7.308 17.352 2.73 0.5 21.38-12.75 23.18-13.36z" fill="#B57D61"/>
      <path d="m111.47 254.58c-3.924 2.34-11.16 6.695-12.564 6.264-1.404-0.648 4.932-9.469 4.284-9.539-0.756-0.072-6.696 5.867-8.496 8.928-1.908 2.951-4.248 8.496-2.448 8.711 1.764 0.072 8.136-4.139 13.14-7.775 4.968-3.816 15.444-13.176 16.56-14.328 0.9-1.04-6.62 5.3-10.48 7.75z" fill="#B57D61"/>
      <path d="m18.774 355.2c3.456-3.203 9.864-9.756 20.592-20.771 10.728-11.268 30.924-33.301 42.948-45.396 11.88-12.023 25.344-23.76 27.612-26.316 1.98-2.592-7.02 3.602-15.048 10.945-8.1 7.379-20.484 18.971-33.12 32.436-12.852 13.283-35.604 38.736-42.84 47.053-7.204 8.17-3.64 5.11-0.148 2.05z" fill="#B57D61"/>
      <path d="m21.006 348.21c-0.252 0.686 5.112-6.336 10.692-12.168 5.364-5.902 21.528-21.635 21.852-22.463 0.216-0.684-14.616 11.627-20.052 17.641-5.544 5.87-12.168 16.02-12.492 16.99z" fill="#B57D61"/>
      <path d="m56.862 306.67c-0.036 0.611 6.264-7.813 10.98-12.24 4.572-4.607 16.812-13.68 16.848-14.436-0.036-0.613-12.276 5.76-16.848 10.367-4.716 4.43-11.016 15.56-10.98 16.31z" fill="#B57D61"/>
      <path d="m146.39 235.5c-3.096 1.043-5.868 1.404-8.856 0.936-2.988-0.539-6.588-2.053-8.712-3.852-2.124-1.98-3.492-4.285-4.248-7.309-0.828-3.061-1.296-6.443-1.008-10.547l-14.688 20.303c1.044 3.961 2.808 6.984 5.436 9.361 2.52 2.34 7.092 3.924 10.26 4.463 3.168 0.396 5.94-0.18 8.604-1.871 4.4-3.81 8.8-7.63 13.22-11.48z" fill="#212121"/>
      <path d="m257.09 127.21c-2.628 3.708 31.645-30.6 43.524-43.2 11.736-12.672 22.572-22.104 26.532-31.752 3.672-9.684-3.853-24.48-3.96-25.92-0.108-1.296 3.996 11.448 3.132 17.388-1.008 5.652 2.376 2.844-9.145 16.848-11.75 14.04-57.18 62.496-60.07 66.636z" fill="#B57D61"/>
      <path d="m307.71 65.687c0.324-0.18 12.313-15.229 14.185-20.844 1.764-5.616-3.313-12.672-3.564-12.564-0.359 0.072 3.313 7.056 1.584 12.744-1.95 5.615-12.5 20.555-12.21 20.664z" fill="#B57D61"/>
    </g>
  </g>
  <metadata>
    <rdf:RDF>
      <cc:Work>
        <dc:format>image/svg+xml</dc:format>
        <dc:type rdf:resource="http://purl.org/dc/dcmitype/StillImage"/>
        <cc:license rdf:resource="http://creativecommons.org/licenses/publicdomain/"/>
        <dc:publisher>
          <cc:Agent rdf:about="http://openclipart.org/">
            <dc:title>Openclipart</dc:title>
          </cc:Agent>
        </dc:publisher>
        <dc:title>Baseball bat</dc:title>
        <dc:date>2007-11-13T23:22:52</dc:date>
        <dc:description>ball, baseball, bat, clip art, clipart, colouring book, sport, </dc:description>
        <dc:source>http://openclipart.org/detail/8299/baseball-bat-by-gerald_g-8299</dc:source>
        <dc:creator>
          <cc:Agent>
            <dc:title>Gerald_G</dc:title>
          </cc:Agent>
        </dc:creator>
        <dc:subject>
          <rdf:Bag>
            <rdf:li>ball</rdf:li>
            <rdf:li>baseball</rdf:li>
            <rdf:li>bat</rdf:li>
            <rdf:li>clip art</rdf:li>
            <rdf:li>clipart</rdf:li>
            <rdf:li>colouring book</rdf:li>
            <rdf:li>sport</rdf:li>
          </rdf:Bag>
        </dc:subject>
      </cc:Work>
      <cc:License rdf:about="http://creativecommons.org/licenses/publicdomain/">
        <cc:permits rdf:resource="http://creativecommons.org/ns#Reproduction"/>
        <cc:permits rdf:resource="http://creativecommons.org/ns#Distribution"/>
        <cc:permits rdf:resource="http://creativecommons.org/ns#DerivativeWorks"/>
      </cc:License>
    </rdf:RDF>
  </metadata>
</svg>
