<?xml version="1.0" standalone="no"?>
<!DOCTYPE svg PUBLIC "-//W3C//DTD SVG 20010904//EN"
 "http://www.w3.org/TR/2001/REC-SVG-20010904/DTD/svg10.dtd">
<svg version="1.0" xmlns="http://www.w3.org/2000/svg"
 width="800.000000pt" height="800.000000pt" viewBox="0 0 800.000000 800.000000"
 preserveAspectRatio="xMidYMid meet">
<metadata>
Created by potrace 1.14, written by Peter Selinger 2001-2017
</metadata>
<g transform="translate(0.000000,800.000000) scale(0.100000,-0.100000)"
fill="#000000" stroke="none">
<path d="M0 4000 l0 -4000 4000 0 4000 0 0 4000 0 4000 -4000 0 -4000 0 0
-4000z m6026 1844 c77 -62 131 -167 136 -268 l3 -48 79 -29 c101 -37 193 -87
283 -155 166 -127 269 -299 321 -534 25 -115 25 -117 29 -731 4 -532 2 -617
-10 -628 -10 -8 -50 -11 -128 -9 l-114 3 0 545 c0 503 1 548 17 573 31 45 144
61 136 19 -2 -11 -15 -18 -38 -20 -74 -7 -70 26 -70 -559 l0 -523 80 0 81 0
-3 638 c-4 629 -4 638 -27 717 -61 214 -189 394 -363 509 l-56 38 -41 -45
c-57 -61 -126 -90 -218 -91 -39 -1 -74 2 -78 6 -11 11 36 67 88 105 26 19 73
43 105 53 l57 17 -40 17 c-63 27 -197 64 -296 81 -85 15 -94 15 -142 -2 -82
-28 -291 -25 -377 5 -87 31 -186 91 -255 154 -52 47 -55 53 -40 65 10 6 60 22
112 34 170 39 352 16 482 -63 20 -12 65 -47 101 -78 47 -41 76 -59 105 -64 22
-4 53 -9 70 -13 29 -5 29 -5 -17 46 -26 29 -56 76 -67 105 -22 59 -37 166 -27
191 5 15 10 14 43 -6 21 -12 57 -37 79 -55z m-3682 -1243 c114 -50 198 -208
208 -391 l3 -54 -42 -7 c-23 -4 -84 -9 -135 -11 l-93 -3 -7 87 c-8 95 -29 158
-52 158 -80 0 -100 -108 -93 -508 5 -289 10 -321 57 -372 28 -30 34 -32 84
-28 113 9 202 131 222 303 l6 52 -38 6 c-22 4 -63 7 -91 7 l-53 0 0 -48 c0
-62 -14 -110 -42 -139 -43 -46 -66 -17 -28 35 14 19 22 52 27 112 l8 85 110
-3 c166 -4 159 0 150 -80 -7 -70 -37 -177 -62 -226 -8 -16 -36 -51 -61 -78
-50 -54 -129 -85 -185 -74 -45 9 -97 53 -118 101 -55 124 -52 712 4 825 29 59
82 88 124 68 44 -21 66 -71 71 -161 l5 -80 66 7 c36 3 79 6 95 6 l28 0 -7 57
c-10 80 -49 190 -83 232 -55 68 -102 93 -184 99 -161 10 -257 -78 -313 -288
-26 -97 -32 -368 -11 -487 17 -98 51 -186 92 -240 14 -18 22 -38 19 -43 -25
-40 -89 41 -130 162 -37 112 -52 302 -37 463 27 282 121 435 297 479 38 9 146
-3 189 -23z m1622 -6 c93 -45 157 -146 191 -296 24 -105 24 -444 0 -549 -49
-219 -136 -325 -267 -325 -163 1 -197 111 -187 590 4 228 7 267 26 319 24 69
42 85 98 86 34 0 46 -5 67 -30 36 -43 44 -84 51 -260 9 -205 -6 -416 -31 -459
-20 -34 -50 -49 -67 -32 -8 8 -4 17 12 35 34 36 44 137 39 396 -3 179 -7 233
-20 262 -20 45 -59 60 -88 33 -37 -34 -45 -104 -45 -430 0 -272 2 -316 18
-361 22 -64 54 -94 105 -101 57 -8 86 2 132 43 91 82 135 274 127 554 -7 247
-42 366 -131 448 -50 46 -96 62 -181 62 -133 -1 -222 -85 -270 -256 -23 -82
-31 -337 -15 -506 58 -642 285 -1200 573 -1412 160 -117 264 -164 457 -208 95
-21 129 -23 355 -23 197 0 274 4 363 19 96 16 112 21 107 35 -21 52 -18 81 11
108 24 22 136 66 277 110 11 4 17 0 17 -11 0 -22 20 -20 92 9 35 14 68 23 74
21 10 -4 74 -164 74 -185 0 -4 -18 -13 -39 -20 -76 -22 -116 -45 -116 -66 0
-16 -24 -28 -130 -67 -71 -26 -142 -48 -157 -48 -28 0 -78 49 -78 76 0 8 -1
14 -2 14 -2 0 -64 -9 -138 -20 -432 -65 -813 -18 -1058 131 -234 142 -360 294
-495 597 -79 178 -106 255 -147 422 -64 252 -110 666 -95 850 12 157 53 291
111 367 81 107 251 141 380 78z m1479 4 c51 -24 114 -89 144 -147 45 -87 63
-188 68 -378 5 -144 2 -203 -12 -285 -46 -282 -189 -425 -345 -346 -101 51
-113 109 -108 542 4 344 6 365 59 414 30 28 91 29 119 1 46 -46 53 -83 58
-315 6 -325 -16 -455 -79 -455 -23 0 -25 28 -3 44 23 17 32 75 39 261 7 180
-5 362 -26 408 -16 35 -53 45 -78 23 -33 -30 -42 -95 -48 -361 -9 -440 17
-535 148 -535 73 0 121 39 163 130 61 134 85 327 67 541 -20 239 -74 360 -186
414 -49 25 -64 27 -130 23 -60 -4 -84 -11 -122 -34 -87 -54 -141 -166 -163
-336 -29 -234 9 -529 83 -638 25 -36 25 -60 2 -60 -37 0 -96 132 -120 267 -22
125 -22 404 0 507 41 197 118 299 250 333 65 16 164 8 220 -18z m838 3 c50
-23 115 -90 145 -152 30 -62 62 -193 62 -251 l0 -47 -62 -7 c-35 -4 -94 -7
-133 -8 l-70 -2 -7 85 c-8 108 -28 160 -61 160 -50 0 -73 -56 -87 -211 -20
-223 -6 -557 26 -625 51 -107 210 -95 314 23 l40 46 0 158 c0 182 13 164 -127
175 l-93 7 0 -32 c0 -23 5 -31 18 -31 37 0 42 -19 42 -166 0 -112 -3 -143 -14
-147 -8 -3 -17 -3 -20 0 -3 4 -6 62 -6 130 l0 123 -35 15 -36 14 3 68 3 68 45
3 c25 1 92 -3 150 -10 l105 -13 3 -191 2 -192 -49 -54 c-54 -59 -132 -104
-199 -114 -84 -13 -176 47 -203 133 -16 54 -24 568 -10 674 15 110 45 170 94
186 80 27 124 -20 136 -148 5 -44 11 -82 14 -86 3 -3 43 -1 89 3 l83 9 -4 45
c-5 67 -47 191 -81 238 -46 64 -98 93 -175 99 -98 8 -149 -10 -216 -76 -93
-94 -132 -234 -132 -481 0 -80 5 -179 12 -220 15 -86 63 -209 91 -235 26 -24
26 -55 0 -55 -37 0 -108 133 -128 240 -16 86 -23 283 -13 410 18 250 114 413
268 456 61 17 160 11 216 -14z m-5288 -122 l0 -125 -45 0 c-34 0 -45 4 -48 17
-2 12 5 19 22 24 25 6 26 8 26 90 l0 84 -252 -2 -253 -3 -3 -82 -3 -83 161 0
162 0 29 -29 29 -30 -2 -448 -3 -448 -120 0 -120 0 -3 408 c-1 269 1 407 8
407 5 0 13 1 18 3 4 1 9 -173 12 -388 l5 -390 80 0 80 0 3 415 c2 348 0 419
-12 435 -13 18 -30 20 -188 25 l-173 5 -3 109 c-1 61 0 116 2 123 5 11 62 13
298 11 l293 -3 0 -125z m720 10 l0 -115 -162 -3 -163 -2 0 -110 0 -110 125 0
125 0 0 -114 0 -115 -211 -3 -211 -3 -24 -28 c-24 -28 -24 -32 -24 -218 l0
-189 255 0 255 0 0 80 0 80 -167 2 -168 3 0 85 c0 78 2 85 20 85 18 0 20 -8
23 -67 l3 -68 162 -2 162 -3 0 -115 0 -115 -290 0 -290 0 0 220 c0 305 -10
295 275 295 l190 0 0 75 0 75 -125 0 c-148 0 -137 -14 -133 170 l3 125 168 3
167 2 0 80 0 80 -255 0 -255 0 0 -281 c0 -262 -1 -280 -17 -277 -17 3 -18 26
-21 288 -1 157 0 290 3 298 3 10 66 12 292 10 l288 -3 0 -115z m1229 104 c3
-9 6 -147 6 -309 0 -245 2 -295 15 -305 8 -7 47 -15 87 -19 l73 -6 3 -238 2
-238 83 3 82 3 3 538 2 537 -85 0 -85 0 -2 -247 c-3 -240 -4 -248 -23 -248
-20 0 -20 7 -20 270 l0 270 125 0 125 0 0 -580 0 -580 -125 0 -125 0 -3 238
-2 237 -50 0 c-64 0 -95 15 -115 55 -12 27 -15 81 -15 309 l0 276 -85 0 -85 0
0 -540 0 -540 85 0 85 0 0 180 c0 156 2 181 16 187 9 3 20 0 25 -8 11 -18 12
-369 1 -387 -7 -9 -39 -12 -128 -10 l-119 3 -3 570 c-1 314 0 576 3 583 3 9
37 12 124 12 99 0 120 -3 125 -16z m1616 -400 c0 -390 -1 -415 -17 -412 -17 3
-18 31 -21 396 l-2 392 -85 0 -85 0 0 -424 c0 -373 2 -426 16 -440 13 -14 48
-16 224 -16 115 0 215 -3 224 -6 13 -5 16 -24 16 -109 0 -57 -3 -110 -6 -119
-5 -14 -38 -16 -259 -16 -208 0 -254 3 -258 14 -3 8 -3 17 0 20 4 3 111 6 240
6 l233 0 0 85 0 85 -201 0 c-171 0 -205 3 -230 17 -15 9 -32 24 -36 32 -9 19
-17 854 -8 888 5 22 9 23 130 23 l125 0 0 -416z m3035 296 l0 -115 -163 -3
-163 -2 3 -108 3 -107 120 -5 120 -5 0 -110 0 -110 -208 -5 -209 -5 -24 -28
c-24 -28 -24 -32 -24 -218 l0 -189 250 0 250 0 0 80 0 80 -162 2 -163 3 0 85
c0 78 2 85 20 85 18 0 20 -8 23 -67 l3 -68 162 -2 162 -3 0 -115 0 -115 -295
0 -295 0 0 215 c0 303 -10 293 275 300 l195 5 0 70 0 70 -125 5 -125 5 0 145
0 145 163 3 162 2 0 80 0 80 -250 0 -250 0 -2 -277 c-3 -270 -4 -278 -23 -278
-19 0 -20 8 -23 285 -1 157 0 290 3 298 3 10 67 12 297 10 l293 -3 0 -115z
m-3579 -3444 l51 -99 17 50 c31 93 118 153 221 153 55 0 125 -21 125 -37 0 -5
-12 -23 -27 -41 -26 -30 -31 -32 -61 -23 -19 6 -48 7 -65 4 -71 -14 -107 -61
-107 -138 0 -37 6 -52 33 -81 28 -31 42 -37 84 -41 61 -6 96 9 91 40 -2 17
-12 23 -38 27 -33 5 -35 7 -35 45 0 39 1 40 37 43 31 3 38 7 43 31 12 57 60
117 116 145 160 79 339 -31 339 -209 0 -57 -43 -140 -92 -175 -74 -54 -167
-61 -251 -19 -38 20 -38 20 -82 -1 -60 -29 -130 -35 -184 -16 -30 11 -48 13
-55 6 -12 -12 -75 -13 -92 -2 -7 4 -20 25 -30 47 l-19 40 -107 3 -107 3 -26
-51 c-25 -50 -25 -50 -75 -50 l-49 0 -3 113 -3 112 -30 -55 c-29 -54 -31 -55
-77 -58 l-47 -3 -28 53 -28 53 -5 -105 -5 -105 -50 0 -50 0 -3 218 -2 217 52
0 53 0 55 -105 c30 -58 57 -105 60 -105 3 0 27 48 54 105 l49 105 52 0 c51 0
53 -1 59 -31 3 -17 6 -61 7 -98 l0 -66 44 90 c56 114 59 117 103 113 36 -3 39
-6 88 -102z m-748 -123 l-3 -218 -47 -3 -48 -3 0 220 0 221 50 0 50 0 -2 -217z"/>
<path d="M5550 2265 c0 -8 -11 -17 -25 -21 -43 -11 -27 -24 30 -24 44 0 53 3
49 15 -4 9 5 19 28 29 l33 14 -57 1 c-45 1 -58 -2 -58 -14z"/>
<path d="M4566 1050 c-63 -20 -104 -90 -90 -152 15 -72 62 -108 140 -108 41 0
51 5 85 39 35 34 39 44 39 87 0 52 -25 105 -57 122 -29 16 -86 22 -117 12z"/>
<path d="M3891 966 c-17 -38 -31 -70 -31 -72 0 -2 29 -4 65 -4 36 0 65 3 65 8
-1 4 -16 36 -34 72 l-34 65 -31 -69z"/>
</g>
</svg>
